<?xml version="1.0" standalone="no"?><!DOCTYPE svg PUBLIC "-//W3C//DTD SVG 1.1//EN" "http://www.w3.org/Graphics/SVG/1.1/DTD/svg11.dtd"><svg class="icon" height="512" viewBox="0 0 1087 1024" version="1.1" xmlns="http://www.w3.org/2000/svg"><path d="M1053.32389 162.098998 925.165967 34.899863C890.713539 0.575272 836.765765-1.214464 804.742264 30.809037L221.799496 614.646673C221.799496 614.646673 74.018391 954.696621 63.983082 982.181861 55.993187 1003.914376 83.542346 1031.463536 102.590257 1022.131338 133.271455 1006.982496 469.486253 861.055047 469.486253 861.055047L1053.835243 274.788482C1085.922663 242.701062 1087.776319 196.423588 1053.32389 162.098998L1053.32389 162.098998ZM147.781105 888.859883 257.785985 657.025078 256.63544 702.152007 320.426765 701.257139 929.192875 97.7324 1009.667101 176.736486 422.633507 749.771784 408.123857 797.838994 439.18857 828.903708 195.592639 934.753842 147.781105 888.859883 147.781105 888.859883Z" /></svg>